<svg
    width="120"
    height="200"
    viewBox="0 0 120 100"
    xmlns="http://www.w3.org/2000/svg" version="1.1">
  <defs>
    <g id="player-r">
      <rect width="30" height="40" rx="2" ry="2" fill="none" stroke="#FFFFFFAA" stroke-width="2"/>
      <rect x="22" y="5" width="4" height="10" rx="2" fill="#FFFFFFAA"/>
      <rect x="13" y="5" width="4" height="10" rx="2" fill="#FFFFFFAA"/>
    </g>
    <g id="player-l">
      <rect width="30" height="40" rx="2" ry="2" fill="none" stroke="#FFFFFFAA" stroke-width="2"/>
      <rect x="4" y="5" width="4" height="10" rx="2" fill="#FFFFFFAA"/>
      <rect x="13" y="5" width="4" height="10" rx="2" fill="#FFFFFFAA"/>
    </g>
    <g id="player-u">
      <rect y="-15" width="25" height="45" rx="2" ry="2" fill="none" stroke="#FFFFFFAA" stroke-width="2"/>
      <rect x="15" y="-12" width="4" height="10" rx="2" fill="#FFFFFFAA"/>
      <rect x="6" y="-12" width="4" height="10" rx="2" fill="#FFFFFFAA"/>
    </g>
    <g id="w">
      <rect width="20" height="20" rx="2" ry="2" fill="none" stroke="#FFFFFFAA" stroke-width="2"/>
      <text x="10" y="12.5" font-size="10" font-family="system-ui" fill="#FFFFFFAA" text-anchor="middle">W</text>
    </g>
    <g id="a">
      <rect width="20" height="20" rx="2" ry="2" fill="none" stroke="#FFFFFFAA" stroke-width="2"/>
      <text x="10" y="12.5" font-size="10" font-family="system-ui" fill="#FFFFFFAA" text-anchor="middle">A</text>
    </g>
    <g id="s">
      <rect width="20" height="20" rx="2" ry="2" fill="none" stroke="#FFFFFFAA" stroke-width="2"/>
      <text x="10" y="12.5" font-size="10" font-family="system-ui" fill="#FFFFFFAA" text-anchor="middle">S</text>
    </g>
    <g id="d">
      <rect width="20" height="20" rx="2" ry="2" fill="none" stroke="#FFFFFFAA" stroke-width="2"/>
      <text x="10" y="12.5" font-size="10" font-family="system-ui" fill="#FFFFFFAA" text-anchor="middle">D</text>
    </g>
  </defs>
  <use href="#w" x="10" y="20"/>
  <line x1="10" y1="45" x2="70" y2="45" stroke="#FFFFFFAA" stroke-width="2"/>
  <use href="#a" x="50" y="50"/>
  <text x="35" y="65.5" fill="#FFFFFFAA" stroke="#FFFFFFAA"> + </text>
  <use href="#d" x="10" y="50"/>
  <use href="#player-u" x="80" y="30"/>
  <line x1="0" y1="72" x2="120" y2="72" stroke="#FFFFFFAA" stroke-width="2"/>


</svg>